<?xml version="1.0" encoding="utf-8"?>
<!-- Generator: Adobe Illustrator 25.0.1, SVG Export Plug-In . SVG Version: 6.00 Build 0)  -->
<svg version="1.1" id="Layer_1" xmlns="http://www.w3.org/2000/svg" xmlns:xlink="http://www.w3.org/1999/xlink" x="0px" y="0px"
	 viewBox="0 0 280 280" style="enable-background:new 0 0 280 280;" xml:space="preserve">
<style type="text/css">
	.st0{fill:#F6E8EA;stroke:#F6E8EA;stroke-miterlimit:10;}
	.st1{fill:#6E78AF;}
</style>
<ellipse class="st0" cx="140" cy="140" rx="133.04" ry="133.52"/>
<g>
	<g>
		<path class="st1" d="M146.61,132.2l-0.23,0.32c-2.46,3.52-7.34,4.39-10.86,1.93L58.11,80.43c-3.52-2.46-4.39-7.34-1.93-10.86
			l0.23-0.32c2.46-3.52,7.34-4.39,10.86-1.93l77.41,54.03C148.19,123.79,149.06,128.68,146.61,132.2z"/>
	</g>
	<g>
		<path class="st1" d="M133.39,132.07l0.23,0.32c2.46,3.52,7.34,4.39,10.86,1.93l77.41-54.03c3.52-2.46,4.39-7.34,1.93-10.86
			l-0.23-0.32c-2.46-3.52-7.34-4.39-10.86-1.93l-77.41,54.03C131.81,123.67,130.94,128.56,133.39,132.07z"/>
	</g>
</g>
<g>
	<g>
		<path class="st1" d="M146.61,171.31l-0.23,0.32c-2.46,3.52-7.34,4.39-10.86,1.93l-77.41-54.03c-3.52-2.46-4.39-7.34-1.93-10.86
			l0.23-0.32c2.46-3.52,7.34-4.39,10.86-1.93l77.41,54.03C148.19,162.9,149.06,167.79,146.61,171.31z"/>
	</g>
	<g>
		<path class="st1" d="M133.39,171.18l0.23,0.32c2.46,3.52,7.34,4.39,10.86,1.93l77.41-54.03c3.52-2.46,4.39-7.34,1.93-10.86
			l-0.23-0.32c-2.46-3.52-7.34-4.39-10.86-1.93l-77.41,54.03C131.81,162.78,130.94,167.66,133.39,171.18z"/>
	</g>
</g>
<g>
	<g>
		<path class="st1" d="M146.61,208.25l-0.23,0.32c-2.46,3.52-7.34,4.39-10.86,1.93l-77.41-54.03c-3.52-2.46-4.39-7.34-1.93-10.86
			l0.23-0.32c2.46-3.52,7.34-4.39,10.86-1.93l77.41,54.03C148.19,199.84,149.06,204.73,146.61,208.25z"/>
	</g>
	<g>
		<path class="st1" d="M133.39,208.13l0.23,0.32c2.46,3.52,7.34,4.39,10.86,1.93l77.41-54.03c3.52-2.46,4.39-7.34,1.93-10.86
			l-0.23-0.32c-2.46-3.52-7.34-4.39-10.86-1.93l-77.41,54.03C131.81,199.72,130.94,204.61,133.39,208.13z"/>
	</g>
</g>
</svg>
