<svg id="visual" viewBox="0 0 960 300" width="960" height="300" xmlns="http://www.w3.org/2000/svg" xmlns:xlink="http://www.w3.org/1999/xlink" version="1.1"><rect x="0" y="0" width="960" height="300" fill="#706b8b"></rect><path d="M0 121L22.8 114.8C45.7 108.7 91.3 96.3 137 94.5C182.7 92.7 228.3 101.3 274 101.5C319.7 101.7 365.3 93.3 411.2 91.3C457 89.3 503 93.7 548.8 95C594.7 96.3 640.3 94.7 686 93.8C731.7 93 777.3 93 823 96C868.7 99 914.3 105 937.2 108L960 111L960 0L937.2 0C914.3 0 868.7 0 823 0C777.3 0 731.7 0 686 0C640.3 0 594.7 0 548.8 0C503 0 457 0 411.2 0C365.3 0 319.7 0 274 0C228.3 0 182.7 0 137 0C91.3 0 45.7 0 22.8 0L0 0Z" fill="#cfcbe7"></path><path d="M0 85L22.8 85.2C45.7 85.3 91.3 85.7 137 87.5C182.7 89.3 228.3 92.7 274 88.2C319.7 83.7 365.3 71.3 411.2 68.5C457 65.7 503 72.3 548.8 76.5C594.7 80.7 640.3 82.3 686 85.3C731.7 88.3 777.3 92.7 823 93.2C868.7 93.7 914.3 90.3 937.2 88.7L960 87L960 0L937.2 0C914.3 0 868.7 0 823 0C777.3 0 731.7 0 686 0C640.3 0 594.7 0 548.8 0C503 0 457 0 411.2 0C365.3 0 319.7 0 274 0C228.3 0 182.7 0 137 0C91.3 0 45.7 0 22.8 0L0 0Z" fill="#dbd8ed"></path><path d="M0 55L22.8 55.7C45.7 56.3 91.3 57.7 137 61.8C182.7 66 228.3 73 274 73.2C319.7 73.3 365.3 66.7 411.2 66.7C457 66.7 503 73.3 548.8 74C594.7 74.7 640.3 69.3 686 64.5C731.7 59.7 777.3 55.3 823 56.7C868.7 58 914.3 65 937.2 68.5L960 72L960 0L937.2 0C914.3 0 868.7 0 823 0C777.3 0 731.7 0 686 0C640.3 0 594.7 0 548.8 0C503 0 457 0 411.2 0C365.3 0 319.7 0 274 0C228.3 0 182.7 0 137 0C91.3 0 45.7 0 22.8 0L0 0Z" fill="#e7e5f3"></path><path d="M0 27L22.8 31.3C45.7 35.7 91.3 44.3 137 49.3C182.7 54.3 228.3 55.7 274 52.2C319.7 48.7 365.3 40.3 411.2 36.7C457 33 503 34 548.8 35C594.7 36 640.3 37 686 38.2C731.7 39.3 777.3 40.7 823 39.8C868.7 39 914.3 36 937.2 34.5L960 33L960 0L937.2 0C914.3 0 868.7 0 823 0C777.3 0 731.7 0 686 0C640.3 0 594.7 0 548.8 0C503 0 457 0 411.2 0C365.3 0 319.7 0 274 0C228.3 0 182.7 0 137 0C91.3 0 45.7 0 22.8 0L0 0Z" fill="#f3f2f9"></path><path d="M0 12L22.8 13.5C45.7 15 91.3 18 137 20.2C182.7 22.3 228.3 23.7 274 24.3C319.7 25 365.3 25 411.2 24.5C457 24 503 23 548.8 22.2C594.7 21.3 640.3 20.7 686 20C731.7 19.3 777.3 18.7 823 20.5C868.7 22.3 914.3 26.7 937.2 28.8L960 31L960 0L937.2 0C914.3 0 868.7 0 823 0C777.3 0 731.7 0 686 0C640.3 0 594.7 0 548.8 0C503 0 457 0 411.2 0C365.3 0 319.7 0 274 0C228.3 0 182.7 0 137 0C91.3 0 45.7 0 22.8 0L0 0Z" fill="#ffffff"></path></svg>